<svg xmlns="http://www.w3.org/2000/svg" viewBox="0 0 512 512">
  <defs>
    <radialGradient id="bg" cx="50%" cy="30%" r="80%">
      <stop offset="0%" stop-color="#1a1e2e"/>
      <stop offset="100%" stop-color="#010205"/>
    </radialGradient>
    <radialGradient id="ball" cx="40%" cy="40%" r="70%">
      <stop offset="0%" stop-color="#ffc860"/>
      <stop offset="100%" stop-color="#f4a020"/>
    </radialGradient>
  </defs>
  <rect width="512" height="512" rx="96" fill="url(#bg)"/>
  <circle cx="256" cy="256" r="150" fill="url(#ball)"/>
  <!-- Baseball stitching curves -->
  <path d="M 150 200 Q 190 256 150 312" stroke="#b07818" stroke-width="6" fill="none" stroke-linecap="round"/>
  <path d="M 362 200 Q 322 256 362 312" stroke="#b07818" stroke-width="6" fill="none" stroke-linecap="round"/>
  <!-- Musical note -->
  <g transform="translate(256 256)">
    <path d="M -20 -60 L -20 30 Q -20 50 -40 50 Q -60 50 -60 30 Q -60 10 -40 10 Q -28 10 -20 18 L -20 -40 L 40 -55 L 40 15 Q 40 35 20 35 Q 0 35 0 15 Q 0 -5 20 -5 Q 32 -5 40 3 L 40 -40 Z"
          fill="#010205"/>
  </g>
</svg>
